#!OML:ASF F:\VICON\USERDATA\INSTALL\rory3\rory3.ASF
:FULLY-SPECIFIED
:DEGREES
351
root 1.04872 17.6742 37.1086 -3.76526 -5.74948 0.122498
lowerback 10.0612 2.52102 1.48995
upperback 0.344551 3.54543 0.408138
thorax -5.21423 1.71563 -0.918987
lowerneck -14.794 -2.89751 -2.28776
upperneck 19.9887 -3.71262 1.11349
head 8.75137 -1.80173 0.316973
rclavicle 1.77105e-014 1.05356e-014
rhumerus -24.2868 -16.14 -80.939
rradius 28.7168
rwrist 2.97253
rhand -19.0637 24.087
rfingers 7.12502
rthumb 7.24369 -5.76901
lclavicle 1.77105e-014 1.05356e-014
lhumerus -38.8215 14.4198 76.596
lradius 17.8786
lwrist 3.52096
lhand -32.2292 28.9367
lfingers 7.12502
lthumb -5.47 58.8461
rfemur -6.37175 3.86808 21.8189
rtibia 70.8351
rfoot 13.858 -1.08996
rtoes 12.4491
lfemur -17.5998 -2.82474 -23.4518
ltibia 33.0338
lfoot -9.09496 -2.07581
ltoes -1.09107
352
root 1.05685 17.6795 37.2827 -3.93121 -5.67062 0.227097
lowerback 10.2868 2.41611 1.37526
upperback 0.374522 3.39797 0.442942
thorax -5.32141 1.64463 -0.808085
lowerneck -14.9041 -2.78434 -2.13011
upperneck 20.2238 -3.52328 0.794815
head 8.8391 -1.73375 0.202905
rclavicle -7.09413e-015 9.14409e-015
rhumerus -24.4476 -16.7607 -80.7683
rradius 28.3261
rwrist 3.68075
rhand -18.6684 24.1338
rfingers 7.12502
rthumb 7.62523 -5.70875
lclavicle -7.09413e-015 9.14409e-015
lhumerus -38.4078 14.0681 77.0005
lradius 18.1084
lwrist 3.93484
lhand -34.0132 30.8305
lfingers 7.12502
lthumb -7.19229 60.6883
rfemur -7.82969 3.47924 21.6142
rtibia 72.5729
rfoot 11.6601 -1.94324
rtoes 12.3595
lfemur -16.8149 -2.88907 -23.702
ltibia 33.1077
lfoot -9.50366 -1.97408
ltoes -0.490337
353
root 1.0603 17.6905 37.4694 -4.12318 -5.72428 0.292096
lowerback 10.3004 2.35233 1.25322
upperback 0.551712 3.2983 0.483235
thorax -5.15437 1.60148 -0.679166
lowerneck -15.2809 -2.74371 -1.85626
upperneck 20.5251 -3.44292 0.410372
head 8.99759 -1.71415 0.0294005
rclavicle -4.07757e-014 3.37934e-015
rhumerus -24.5179 -17.6556 -80.6466
rradius 28.064
rwrist 4.77079
rhand -18.3967 24.3523
rfingers 7.12502
rthumb 7.88742 -5.48055
lclavicle -4.07757e-014 3.37934e-015
lhumerus -37.7938 14.193 77.1115
lradius 18.2211
lwrist 3.39651
lhand -32.9638 26.303
lfingers 7.12502
lthumb -6.17922 56.1928
rfemur -9.13626 3.30183 21.4979
rtibia 74.0457
rfoot 9.43335 -2.87172
rtoes 11.7882
lfemur -15.8753 -2.90089 -23.897
ltibia 33.1111
lfoot -10.0042 -1.68663
ltoes -0.339315
354
root 1.06248 17.6992 37.6512 -4.25679 -5.9383 0.395006
lowerback 10.1914 2.35713 1.11807
upperback 0.727102 3.28497 0.490674
thorax -4.91789 1.60122 -0.583938
lowerneck -15.2199 -2.68735 -1.8582
upperneck 20.4816 -3.38345 0.490194
head 8.97221 -1.67816 0.0653426
rclavicle -3.3402e-014 -3.97569e-015
rhumerus -24.4451 -18.4293 -80.5551
rradius 27.4748
rwrist 5.73096
rhand -18.3767 24.1865
rfingers 7.12502
rthumb 7.90674 -5.64563
lclavicle -3.3402e-014 -3.97569e-015
lhumerus -37.0884 13.7919 77.4304
lradius 18.3951
lwrist 3.44841
lhand -31.7148 23.1349
lfingers 7.12502
lthumb -4.97338 53.0566
rfemur -10.4394 3.26457 21.3767
rtibia 75.3256
rfoot 7.52859 -3.72204
rtoes 13.178
lfemur -14.98 -2.77655 -24.1139
ltibia 32.989
lfoot -10.487 -1.3724
ltoes -0.558894
355
root 1.06323 17.7044 37.8143 -4.35251 -6.1387 0.648254
lowerback 10.2329 2.36363 0.746554
upperback 0.776096 3.25103 0.492451
thorax -4.91106 1.59255 -0.370177
lowerneck -14.8705 -2.55754 -1.89018
upperneck 20.3345 -3.22001 0.574231
head 8.85766 -1.5969 0.124826
rclavicle -1.51076e-014 -3.97569e-016
rhumerus -24.5638 -18.9944 -80.3978
rradius 26.9018
rwrist 6.29533
rhand -18.4628 24.2305
rfingers 7.12502
rthumb 7.8237 -5.60474
lclavicle -1.51076e-014 -3.97569e-016
lhumerus -36.4262 13.5669 77.5654
lradius 18.4309
lwrist 2.77376
lhand -30.6518 25.3995
lfingers 7.12502
lthumb -3.94686 55.3426
rfemur -11.9561 3.22166 21.0835
rtibia 76.4438
rfoot 6.12184 -4.65087
rtoes 19.1936
lfemur -14.1931 -2.53965 -24.4699
ltibia 32.7759
lfoot -10.9493 -1.21341
ltoes -1.25265
356
root 1.06951 17.7197 37.9884 -4.36995 -6.10155 0.956405
lowerback 10.1333 2.2322 0.372315
upperback 0.882228 3.03078 0.472162
thorax -4.76456 1.49267 -0.143623
lowerneck -15.1003 -2.45629 -1.77497
upperneck 20.4382 -3.0662 0.405056
head 8.92844 -1.53315 0.0632419
rclavicle -1.33807e-014 1.90833e-014
rhumerus -24.7177 -19.2236 -80.4107
rradius 26.8626
rwrist 6.33983
rhand -18.2666 24.1147
rfingers 7.12502
rthumb 8.01305 -5.71339
lclavicle -1.33807e-014 1.90833e-014
lhumerus -35.8814 13.8918 77.4197
lradius 18.6964
lwrist 1.08591
lhand -30.1567 22.36
lfingers 7.12502
lthumb -3.4688 52.3115
rfemur -13.4361 2.96414 20.6373
rtibia 77.2965
rfoot 4.35761 -5.64394
rtoes 15.7886
lfemur -13.4467 -2.56322 -24.9352
ltibia 32.5661
lfoot -11.4017 -1.00888
ltoes -1.38755
357
root 1.07838 17.7382 38.1743 -4.56644 -5.91787 1.00365
lowerback 10.2361 2.01893 0.352747
upperback 0.995777 2.74614 0.504861
thorax -4.70628 1.35302 -0.0600729
lowerneck -15.3492 -2.41288 -1.62848
upperneck 20.6192 -2.96353 0.0729949
head 9.02734 -1.50899 -0.0659661
rclavicle -9.69075e-016 -1.55052e-014
rhumerus -24.6993 -19.8038 -80.3174
rradius 26.3766
rwrist 6.93941
rhand -18.133 22.4169
rfingers 7.12502
rthumb 8.14198 -7.40619
lclavicle -9.69075e-016 -1.55052e-014
lhumerus -35.4507 13.2715 77.7902
lradius 19.0473
lwrist 1.28926
lhand -31.7311 16.3251
lfingers 7.12502
lthumb -4.98906 46.2463
rfemur -14.4167 2.59853 20.5214
rtibia 77.8196
rfoot 1.77177 -6.37752
rtoes 9.20777
lfemur -12.4568 -2.62837 -25.1403
ltibia 32.3697
lfoot -11.8766 -0.93102
ltoes -0.496443
358
root 1.08101 17.7441 38.3361 -4.59388 -5.84727 0.828936
lowerback 10.3776 1.92717 0.568025
upperback 1.02402 2.65315 0.580793
thorax -4.74961 1.30317 -0.0933122
lowerneck -15.2902 -2.47782 -1.73167
upperneck 20.6232 -3.00606 -0.0266499
head 9.01856 -1.54819 -0.0872853
rclavicle -3.45388e-015 -1.07344e-014
rhumerus -24.6392 -20.8635 -79.9977
rradius 25.6622
rwrist 7.63338
rhand -17.8818 20.9507
rfingers 7.12502
rthumb 8.38445 -8.8629
lclavicle -3.45388e-015 -1.07344e-014
lhumerus -34.7221 12.0589 78.49
lradius 19.0641
lwrist 2.42428
lhand -33.6428 12.6087
lfingers 7.12502
lthumb -6.83473 42.4783
rfemur -15.7696 2.34157 20.7567
rtibia 78.2384
rfoot 1.03559 -6.68006
rtoes 8.98734
lfemur -11.7592 -2.52249 -25.0391
ltibia 32.1726
lfoot -12.3005 -0.944321
ltoes -0.352486
359
root 1.0798 17.7464 38.493 -4.51418 -5.72751 0.772144
lowerback 10.3902 1.78992 0.555289
upperback 1.05022 2.47327 0.663362
thorax -4.73399 1.21542 0.0254079
lowerneck -15.2902 -2.41298 -1.83677
upperneck 20.7163 -2.88736 -0.0385742
head 9.05134 -1.50234 -0.0601352
rclavicle -2.32454e-014 1.82882e-014
rhumerus -24.6788 -21.5602 -79.8146
rradius 25.2856
rwrist 8.11062
rhand -17.8646 21.3115
rfingers 7.12502
rthumb 8.40101 -8.50144
lclavicle -2.32454e-014 1.82882e-014
lhumerus -34.011 11.9314 78.5775
lradius 18.9333
lwrist 1.63234
lhand -34.954 10.3536
lfingers 7.12502
lthumb -8.1004 40.1783
rfemur -17.3023 2.10291 20.849
rtibia 78.5175
rfoot 0.18177 -6.95693
rtoes 9.17638
lfemur -11.1864 -2.47964 -25.0569
ltibia 31.9758
lfoot -12.5875 -0.972009
ltoes -0.517242
360
root 1.08298 17.7518 38.6611 -4.48413 -5.49366 0.925389
lowerback 10.3871 1.61098 0.322281
upperback 1.02239 2.21029 0.684468
thorax -4.77128 1.09022 0.215277
lowerneck -15.0995 -2.20264 -1.81025
upperneck 20.6596 -2.60606 -0.0370909
head 8.99366 -1.36901 -0.0268354
rclavicle -4.57205e-015 1.19271e-015
rhumerus -24.79 -21.8254 -79.7024
rradius 24.7973
rwrist 8.13913
rhand -17.8704 21.8749
rfingers 7.12502
rthumb 8.39542 -7.93827
lclavicle -4.57205e-015 1.19271e-015
lhumerus -33.5657 11.303 78.8576
lradius 19.206
lwrist 1.61861
lhand -33.9278 11.8767
lfingers 7.12502
lthumb -7.10992 41.7373
rfemur -18.6505 1.72351 20.6408
rtibia 78.5963
rfoot -0.92334 -7.07516
rtoes 8.52766
lfemur -10.439 -2.47727 -25.3571
ltibia 31.7251
lfoot -13.0396 -0.978057
ltoes -0.449747
361
root 1.08839 17.761 38.8326 -4.52485 -5.23463 1.01212
lowerback 10.373 1.38542 0.271792
upperback 0.988823 1.90436 0.668519
thorax -4.79842 0.940043 0.270716
lowerneck -14.7175 -2.16652 -2.11203
upperneck 20.5485 -2.58536 0.37696
head 8.89546 -1.33939 0.171431
rclavicle -2.60905e-015 -7.95139e-016
rhumerus -25.4566 -21.7892 -79.6752
rradius 25.204
rwrist 7.66883
rhand -17.5816 21.6388
rfingers 7.12502
rthumb 8.67413 -8.16298
lclavicle -2.60905e-015 -7.95139e-016
lhumerus -33.1244 10.0438 79.3693
lradius 19.4856
lwrist 2.72666
lhand -31.4008 15.1046
lfingers 7.12502
lthumb -4.6702 45.0331
rfemur -19.8023 1.29531 20.5181
rtibia 78.4382
rfoot -1.36516 -7.05136
rtoes 10.0606
lfemur -9.57738 -2.57612 -25.5928
ltibia 31.437
lfoot -13.4082 -0.900807
ltoes 0.412023
362
root 1.0877 17.7731 39.0089 -4.50453 -4.98497 1.05343
lowerback 10.2815 1.23364 0.249954
upperback 0.93326 1.6996 0.654196
thorax -4.80461 0.839414 0.298758
lowerneck -14.43 -2.36286 -2.61745
upperneck 20.8304 -2.87511 0.936065
head 8.96052 -1.45653 0.412277
rclavicle -9.00743e-015 -1.31198e-014
rhumerus -25.9881 -21.9909 -79.5359
rradius 25.1014
rwrist 7.17297
rhand -17.2169 21.1058
rfingers 7.12502
rthumb 9.02605 -8.68107
lclavicle -9.00743e-015 -1.31198e-014
lhumerus -32.7398 9.07378 79.5777
lradius 19.7058
lwrist 2.91627
lhand -29.6513 16.1778
lfingers 7.12502
lthumb -2.98073 46.1367
rfemur -20.9194 1.0064 20.5181
rtibia 78.0634
rfoot -2.32387 -7.07109
rtoes 10.2788
lfemur -8.90366 -2.56002 -25.7291
ltibia 31.2234
lfoot -13.7737 -0.998356
ltoes 0.789148
363
root 1.08422 17.7713 39.1723 -4.37507 -4.73713 0.894125
lowerback 10.3954 1.02252 0.292113
upperback 0.895314 1.4309 0.76856
thorax -4.90848 0.706775 0.429996
lowerneck -14.629 -2.39719 -2.70114
upperneck 21.3311 -2.84859 0.704775
head 9.16788 -1.47613 0.346049
rclavicle 2.08351e-014 1.82882e-014
rhumerus -26.2425 -21.7747 -79.593
rradius 25.0987
rwrist 6.69912
rhand -17.3593 21.0212
rfingers 7.12502
rthumb 8.88861 -8.77159
lclavicle 2.08351e-014 1.82882e-014
lhumerus -32.2606 8.85783 79.5538
lradius 19.999
lwrist 2.21822
lhand -28.3884 17.8251
lfingers 7.12502
lthumb -1.76107 47.7976
rfemur -22.2283 0.72461 20.7567
rtibia 77.5761
rfoot -3.47728 -7.05276
rtoes 9.41005
lfemur -8.53299 -2.66954 -25.6577
ltibia 31.0461
lfoot -13.932 -0.9449
ltoes -0.141348
